<?xml version="1.0" encoding="UTF-8"?>
<svg xmlns="http://www.w3.org/2000/svg" viewBox="0 0 900 550" width="900" height="550">
  <defs>
    <style>
      .bg { fill: #0a0a0a; }
      .box { fill: #1a1a1a; stroke: #333; stroke-width: 2; }
      .box-orange { fill: #F59E0B; }
      .box-blue { fill: #3B82F6; }
      .box-green { fill: #10B981; }
      .box-dark { fill: #111; stroke: #444; stroke-width: 2; }
      .text { fill: #fff; font-family: system-ui, sans-serif; font-size: 14px; }
      .text-small { fill: #999; font-family: monospace; font-size: 11px; }
      .text-bold { fill: #fff; font-family: system-ui, sans-serif; font-size: 16px; font-weight: bold; }
      .text-black { fill: #000; font-family: system-ui, sans-serif; font-size: 14px; }
      .line { stroke: #3B82F6; stroke-width: 3; fill: none; }
      .line-orange { stroke: #F59E0B; stroke-width: 3; fill: none; }
      .arrow { fill: #3B82F6; }
      .section { fill: none; stroke: #333; stroke-width: 2; stroke-dasharray: 8,4; }
    </style>
  </defs>
  
  <!-- Background -->
  <rect class="bg" width="900" height="550"/>
  
  <!-- Title -->
  <text x="450" y="35" class="text-bold" text-anchor="middle" font-size="20">ETHIOPIA-OPTIMIZED HYBRID STORAGE</text>
  
  <!-- EVENT Section -->
  <rect class="section" x="30" y="60" width="380" height="280" rx="8"/>
  <text x="220" y="85" class="text-small" text-anchor="middle">AT EVENT</text>
  
  <!-- Camera Icon -->
  <rect class="box" x="60" y="120" width="100" height="80" rx="4"/>
  <text x="110" y="155" class="text" text-anchor="middle">📷</text>
  <text x="110" y="175" class="text-small" text-anchor="middle">Camera</text>
  
  <!-- Arrow to Laptop -->
  <line class="line-orange" x1="160" y1="160" x2="200" y2="160"/>
  <polygon fill="#F59E0B" points="210,160 200,155 200,165"/>
  
  <!-- Laptop/Phone -->
  <rect class="box" x="220" y="120" width="120" height="80" rx="4"/>
  <text x="280" y="155" class="text" text-anchor="middle">💻</text>
  <text x="280" y="175" class="text-small" text-anchor="middle">Laptop/Phone</text>
  
  <!-- Event Temp Storage -->
  <rect class="box-orange" x="180" y="250" width="160" height="70" rx="8"/>
  <text x="260" y="280" class="text-black" text-anchor="middle" font-weight="bold">Event Temp</text>
  <text x="260" y="300" class="text-small" text-anchor="middle" fill="#333">Cloud Storage</text>
  
  <!-- Arrow Laptop to Event Temp -->
  <line class="line-orange" x1="280" y1="200" x2="260" y2="250"/>
  <text x="300" y="225" class="text-small" fill="#F59E0B">Mobile Data</text>
  
  <!-- STUDIO Section -->
  <rect class="section" x="440" y="60" width="430" height="280" rx="8"/>
  <text x="655" y="85" class="text-small" text-anchor="middle">AT STUDIO</text>
  
  <!-- Local NAS/PC -->
  <rect class="box" x="470" y="120" width="120" height="80" rx="4"/>
  <text x="530" y="155" class="text" text-anchor="middle">🗄️</text>
  <text x="530" y="175" class="text-small" text-anchor="middle">Local NAS/PC</text>
  
  <!-- Sync Agent -->
  <rect class="box-green" x="620" y="110" width="160" height="100" rx="8"/>
  <text x="700" y="140" class="text-bold" text-anchor="middle">Sync Agent</text>
  <text x="700" y="165" class="text-small" text-anchor="middle" fill="#fff">• Offline Queue</text>
  <text x="700" y="180" class="text-small" text-anchor="middle" fill="#fff">• Bandwidth Limit</text>
  <text x="700" y="195" class="text-small" text-anchor="middle" fill="#fff">• Local Search</text>
  
  <!-- Arrow NAS to Sync Agent -->
  <line class="line" x1="590" y1="160" x2="620" y2="160"/>
  <text x="605" y="145" class="text-small" fill="#3B82F6">Watch</text>
  
  <!-- Cloud (Supabase) -->
  <rect class="box-blue" x="620" y="250" width="160" height="70" rx="8"/>
  <text x="700" y="280" class="text-bold" text-anchor="middle">Supabase</text>
  <text x="700" y="300" class="text-small" text-anchor="middle" fill="#ddd">Cloud Storage</text>
  
  <!-- Arrow Sync Agent to Cloud -->
  <line class="line" x1="700" y1="210" x2="700" y2="250"/>
  <polygon class="arrow" points="700,250 695,240 705,240"/>
  <text x="760" y="230" class="text-small" fill="#3B82F6">Delta Sync</text>
  
  <!-- Arrow Event Temp to Cloud -->
  <path class="line-orange" d="M 340 285 Q 450 285 550 285 Q 600 285 620 285" fill="none"/>
  <polygon fill="#F59E0B" points="620,285 610,280 610,290"/>
  <text x="480" y="275" class="text-small" fill="#F59E0B">Review & Move</text>
  
  <!-- Legend -->
  <rect class="box-dark" x="30" y="380" width="840" height="150" rx="8"/>
  <text x="450" y="410" class="text-bold" text-anchor="middle">DATA FLOW LEGEND</text>
  
  <!-- Legend Items -->
  <rect class="box-orange" x="80" y="440" width="20" height="20" rx="2"/>
  <text x="110" y="455" class="text-small">Event Temp: Fast upload via mobile, auto-cleanup in 30 days</text>
  
  <rect class="box-green" x="80" y="475" width="20" height="20" rx="2"/>
  <text x="110" y="490" class="text-small">Sync Agent: Desktop app with offline queue, delta sync, bandwidth throttle</text>
  
  <rect class="box-blue" x="480" y="440" width="20" height="20" rx="2"/>
  <text x="510" y="455" class="text-small">Cloud: Supabase with pgvector for face search</text>
  
  <line x1="480" y1="485" x2="500" y2="485" stroke="#3B82F6" stroke-width="3"/>
  <text x="510" y="490" class="text-small">WiFi sync (background, throttled)</text>
</svg>
